HIERARCHY
ROOT Hips
{
	OFFSET -3.958830 18.904000 13.208200
	CHANNELS 6 Xposition Yposition Zposition Zrotation Yrotation Xrotation 
	JOINT LHipJoint
	{
		OFFSET 0.000000 0.000000 0.000000
		CHANNELS 3 Zrotation Yrotation Xrotation
		JOINT LeftUpLeg
		{
			OFFSET 1.800000 -1.400000 0.085000
			CHANNELS 3 Zrotation Yrotation Xrotation
			JOINT LeftLeg
			{
				OFFSET 2.215000 -6.000000 0.000000
				CHANNELS 3 Zrotation Yrotation Xrotation
				JOINT LeftFoot
				{
					OFFSET 2.500000 -6.900000 0.000000
					CHANNELS 3 Zrotation Yrotation Xrotation
					JOINT LeftToeBase
					{
						OFFSET 0.200000 -0.500000 1.950000
						CHANNELS 3 Zrotation Yrotation Xrotation
						End Site
						{
							OFFSET 0.000000 0.000000 0.000000
						}
					}
				}
			}
		}
	}
	JOINT RHipJoint
	{
		OFFSET 0.000000 0.000000 0.000000
		CHANNELS 3 Zrotation Yrotation Xrotation
		JOINT RightUpLeg
		{
			OFFSET -1.800000 -1.400000 0.085000
			CHANNELS 3 Zrotation Yrotation Xrotation
			JOINT RightLeg
			{
				OFFSET -2.215000 -6.000000 0.000000
				CHANNELS 3 Zrotation Yrotation Xrotation
				JOINT RightFoot
				{
					OFFSET -2.500000 -6.900000 0.000000
					CHANNELS 3 Zrotation Yrotation Xrotation
					JOINT RightToeBase
					{
						OFFSET -0.200000 -0.500000 1.950000
						CHANNELS 3 Zrotation Yrotation Xrotation
						End Site
						{
							OFFSET 0.000000 0.000000 0.000000
						}
					}
				}
			}
		}
	}
	JOINT LowerBack
	{
		OFFSET 0.000000 0.000000 0.000000
		CHANNELS 3 Zrotation Yrotation Xrotation
		JOINT Spine
		{
			OFFSET -0.087000 1.940000 -0.288900
			CHANNELS 3 Zrotation Yrotation Xrotation
			JOINT Spine1
			{
				OFFSET 0.000000 1.950000 0.060000
				CHANNELS 3 Zrotation Yrotation Xrotation
				JOINT Neck
				{
					OFFSET 0.000000 0.000000 0.000000
					CHANNELS 3 Zrotation Yrotation Xrotation
					JOINT Neck1
					{
						OFFSET 0.000000 1.600000 0.340000
						CHANNELS 3 Zrotation Yrotation Xrotation
						JOINT Head
						{
							OFFSET 0.000000 1.667000 -0.240000
							CHANNELS 3 Zrotation Yrotation Xrotation
							End Site
							{
								OFFSET 0.000000 0.000000 0.000000
							}
						}
					}
				}
				JOINT LeftShoulder
				{
					OFFSET 0.000000 0.000000 0.000000
					CHANNELS 3 Zrotation Yrotation Xrotation
					JOINT LeftArm
					{
						OFFSET 2.700000 1.550000 -0.730000
						CHANNELS 3 Zrotation Yrotation Xrotation
						JOINT LeftForeArm
						{
							OFFSET 5.450000 0.000000 0.000000
							CHANNELS 3 Zrotation Yrotation Xrotation
							JOINT LeftHand
							{
								OFFSET 3.450000 0.000000 0.000000
								CHANNELS 3 Zrotation Yrotation Xrotation
								JOINT LeftHandIndex1
								{
									OFFSET 0.750000 0.000000 0.000000
									CHANNELS 3 Zrotation Yrotation Xrotation
									End Site
									{
										OFFSET 0.000000 0.000000 0.000000
									}
								}
							}
						}
					}
				}
				JOINT RightShoulder
				{
					OFFSET 0.000000 0.000000 0.000000
					CHANNELS 3 Zrotation Yrotation Xrotation
					JOINT RightArm
					{
						OFFSET -2.700000 1.550000 -0.730000
						CHANNELS 3 Zrotation Yrotation Xrotation
						JOINT RightForeArm
						{
							OFFSET -5.450000 0.000000 0.000000
							CHANNELS 3 Zrotation Yrotation Xrotation
							JOINT RightHand
							{
								OFFSET -3.450000 0.000000 0.000000
								CHANNELS 3 Zrotation Yrotation Xrotation
								JOINT RightHandIndex1
								{
									OFFSET -0.750000 0.000000 0.000000
									CHANNELS 3 Zrotation Yrotation Xrotation
									End Site
									{
										OFFSET 0.000000 0.000000 0.000000
									}
								}
							}
						}
					}
				}
			}
		}
	}
}
MOTION
Frames: 14
Frame Time: 0.016667
0.994540 15.976870 -2.544640 5.733255 -4.219624 5.718032 -15.023410 13.242919 2.463027 7.200455 -2.892565 -15.432253 -6.928052 6.898046 20.923628 -1.445795 5.582346 2.834673 0.934230 0.423260 0.345770 18.573954 -10.138749 2.982834 -5.733480 3.650301 -32.342674 8.988500 -11.562816 39.067826 -0.622027 -6.509095 2.325899 0.762910 0.744410 0.213680 -4.227371 -2.747847 -6.639400 17.485011 -8.848441 7.252746 -13.338112 -6.667340 9.839184 -0.818576 -9.670037 -6.894167 -17.790650 7.698466 17.157842 1.105290 -1.021550 -13.480010 -14.901129 -4.082500 -1.383374 -35.989033 -29.993496 15.116401 -151.356142 -70.558503 136.692864 -3.868595 3.068183 0.653440 0.491770 -0.458150 0.548060 16.044976 5.510373 6.119377 29.442788 -9.524048 -9.177287 141.879719 74.955756 125.550739 0.725536 -1.330692 -0.626260 0.764650 0.081550 -0.409220 
1.021020 15.877110 -2.563800 5.792763 -5.468059 4.793940 -15.025799 13.127566 2.372600 7.865141 -3.080811 -15.263411 -7.005629 7.566475 23.698104 -1.267720 5.883073 2.698628 0.960020 0.477780 0.352790 18.601325 -9.871855 3.340211 -8.963023 3.900647 -35.578218 11.917765 -14.809364 44.390195 -0.950186 -7.884526 1.871742 0.732180 0.671360 0.204310 -4.267389 -2.847357 -6.901720 16.186696 -9.020405 9.635577 -12.682635 -6.749278 9.002664 -0.898179 -10.031131 -6.915255 -18.636818 7.997217 17.549853 1.870280 -1.233260 -14.685430 -17.201409 -5.035843 -1.628827 -32.976240 -27.731235 11.993008 -142.291624 -70.304790 124.252507 -3.835690 3.005631 0.656920 0.417950 -0.391520 0.561480 18.522947 6.652905 6.545034 27.703348 -9.299471 -8.542770 151.909965 73.241880 135.742867 0.831900 -1.684110 -0.552350 0.727740 0.028400 -0.373660 
1.039780 15.767330 -2.573630 5.225349 -6.569696 3.534702 -15.024568 12.940262 2.260498 9.268823 -3.318572 -15.040260 -7.167956 8.528568 27.139614 -1.040247 6.365379 2.499157 0.966860 0.499870 0.346380 18.642903 -9.527568 3.813137 -12.916145 3.933255 -38.539454 16.340314 -19.093846 48.733865 -1.332113 -9.410901 1.409173 0.679900 0.599020 0.187070 -4.337781 -2.890889 -7.245147 15.494921 -9.359817 12.351048 -12.218297 -7.012161 8.092977 -0.704982 -10.233232 -7.101331 -19.268491 8.578417 18.532466 2.814380 -1.129340 -14.778350 -19.621223 -6.099692 -1.272877 -30.360023 -24.508211 8.675958 -137.247814 -69.821723 116.614575 -3.795714 3.033495 0.650830 0.345730 -0.346430 0.574740 20.648612 7.835950 6.704468 26.304782 -8.640172 -8.496873 154.251513 71.534159 136.816542 0.963667 -1.770987 -0.483710 0.661930 -0.026880 -0.341890 
1.055320 15.664550 -2.598810 4.389922 -8.072216 1.712207 -15.057921 12.748685 2.177743 11.102280 -3.531496 -14.575060 -7.529626 9.842229 31.046191 -0.847963 7.100180 2.199910 0.961650 0.468630 0.391280 18.653491 -9.061220 4.398760 -17.658523 3.878498 -41.060798 22.175797 -24.246534 51.949110 -1.777358 -10.915746 0.967768 0.613520 0.504280 0.187310 -4.311640 -3.075028 -7.704428 14.241773 -9.464199 16.468552 -10.897804 -7.060294 6.811859 -0.441393 -10.362828 -7.177926 -19.863622 9.344926 19.962047 2.645660 -0.430520 -16.314040 -22.405477 -7.193876 -0.840751 -28.303749 -21.370358 5.607723 -132.546991 -69.766105 109.765007 -3.773962 2.994409 0.723000 0.261950 -0.275810 0.546950 23.055998 9.176102 6.527115 24.186906 -7.277809 -8.912898 155.841641 70.745047 138.174512 1.062032 -1.770321 -0.455650 0.613170 -0.047820 -0.364770 
1.064750 15.581050 -2.643630 3.740811 -10.639220 -0.468120 -15.148661 12.626526 2.167343 12.726804 -3.534259 -13.943629 -8.202716 11.470956 34.831849 -0.621419 7.921891 1.881296 0.957340 0.441960 0.446010 18.600752 -8.535258 4.988920 -22.388321 4.109211 -43.173058 27.772144 -28.790987 54.092643 -2.161538 -12.036074 0.674437 0.550410 0.403130 0.179770 -4.109688 -3.438242 -8.201299 11.811923 -8.847178 21.734585 -8.697220 -6.593258 4.815568 -0.228336 -10.530571 -7.276779 -20.675486 10.607241 21.643997 2.205560 0.477290 -18.279580 -25.335297 -8.078548 -0.294342 -26.690631 -17.724322 2.586499 -118.736049 -70.917947 93.073837 -3.840540 2.797694 0.801360 0.172420 -0.197170 0.515110 25.810014 10.900618 6.056259 21.743190 -4.911322 -9.627578 152.761419 70.826119 134.394587 1.166657 -1.645642 -0.431650 0.577420 -0.071240 -0.391230 
1.068220 15.504080 -2.677470 2.656240 -13.934170 -2.618209 -15.229010 12.603397 2.074436 14.223201 -2.960059 -12.734507 -7.840000 12.679341 37.801570 -0.450726 8.577288 1.643445 0.876910 0.336360 0.440860 18.545675 -8.119908 5.512807 -26.524125 4.864148 -44.528029 33.812348 -32.503129 54.369314 -2.414535 -12.708245 0.534152 0.460160 0.366870 0.176000 -3.929752 -3.688695 -8.555503 10.327557 -7.750038 26.259605 -7.242816 -5.636033 3.089641 0.231559 -10.391683 -7.495597 -20.863368 11.849179 23.950905 1.306270 1.599270 -19.209230 -28.210869 -8.900382 0.505857 -25.301000 -13.812898 0.426060 -109.088436 -71.381649 81.529812 -3.953080 2.729103 0.860840 0.138660 -0.164550 0.461030 27.899916 12.726444 5.687550 20.252273 -2.368322 -10.274736 145.621419 70.437243 124.805189 1.266874 -1.377935 -0.442810 0.566790 -0.030590 -0.420140 
1.070060 15.443990 -2.671710 1.835932 -17.421253 -4.178942 -15.292309 12.701709 1.938493 14.983480 -1.976375 -10.754410 -7.232838 13.205363 38.771117 -0.334312 8.814974 1.563665 0.837370 0.285550 0.452590 18.490549 -7.895567 5.847130 -30.316997 5.310054 -44.642265 39.485147 -33.970851 51.701779 -2.481597 -12.690115 0.553771 0.397770 0.328190 0.195310 -3.774789 -3.870683 -8.722241 9.199037 -6.411653 28.713072 -6.367287 -4.595334 2.046533 0.675649 -10.071493 -7.678328 -20.556281 13.086305 26.004079 0.073520 2.962690 -19.688200 -30.541048 -8.937962 1.353441 -25.020404 -9.842904 -0.895991 -97.511808 -71.940118 69.239293 -3.993482 2.854012 0.892160 0.118120 -0.123270 0.428930 29.376894 13.873520 5.274889 20.386995 0.323282 -10.234534 135.427524 69.468569 110.272082 1.432975 -1.042362 -0.424710 0.534600 -0.019050 -0.434390 
1.058560 15.425580 -2.657880 0.411685 -19.762919 -5.588999 -15.290424 12.832915 1.862485 16.448021 -1.096046 -8.877620 -6.688630 13.519636 39.126619 -0.247493 8.956845 1.518358 0.798860 0.229390 0.462210 18.465864 -7.890629 5.943032 -33.015156 5.530548 -42.667548 45.381034 -33.496856 46.278091 -2.407661 -12.141923 0.708405 0.335420 0.286250 0.193810 -3.744886 -3.884697 -8.776292 9.932552 -5.711255 30.643214 -6.288893 -3.766548 1.256413 1.100266 -9.977640 -8.010470 -20.954588 13.845650 28.542479 -0.898060 3.507640 -20.006790 -32.810751 -9.033729 1.982077 -25.073849 -6.082915 -2.548087 -78.808818 -70.912928 51.713935 -3.778817 3.245041 0.927420 0.085140 -0.091310 0.399390 30.672927 14.781341 5.440786 21.725070 2.199732 -9.847754 130.301252 67.911018 100.917270 1.603823 -0.915494 -0.414960 0.513180 -0.011090 -0.449020 
1.030410 15.431540 -2.633590 -0.945578 -20.593686 -6.575565 -15.264759 13.022810 1.798733 17.629331 -0.458396 -7.215910 -5.660968 13.185266 38.673355 -0.257093 8.899685 1.552540 0.718520 0.111500 0.458570 18.445574 -8.005481 5.910950 -35.106376 5.276008 -39.591601 49.850460 -31.121606 39.751196 -2.224732 -11.326935 0.919697 0.259520 0.277590 0.174220 -3.724006 -3.899658 -8.773512 10.812356 -5.315095 31.415528 -6.340973 -3.171505 0.674943 1.492602 -9.606339 -8.418118 -20.940959 14.501689 31.854630 -1.609660 4.094490 -19.695740 -34.625221 -9.544268 2.340209 -25.555842 -2.540297 -4.862531 -60.201275 -66.005400 34.246858 -3.546166 3.364796 0.984980 0.063940 -0.083950 0.354840 31.605930 15.363916 5.978620 24.519577 3.207895 -9.476952 126.551268 66.659621 93.538900 1.746610 -0.830560 -0.455670 0.526490 0.030240 -0.480600 
0.982640 15.445500 -2.608570 -2.092632 -21.083881 -5.937952 -15.239779 13.131469 1.738844 18.408113 0.049978 -7.291679 -4.480204 12.643963 37.989746 -0.256829 8.661248 1.652022 0.704670 0.090690 0.470170 18.443619 -8.104533 5.897774 -36.344301 5.209891 -37.759593 51.616641 -27.596722 33.958093 -2.020303 -10.529517 1.141256 0.228410 0.274130 0.167720 -3.737106 -3.811705 -8.755802 11.826862 -4.592542 29.816832 -6.076846 -2.219780 0.484926 1.715740 -9.306434 -8.524619 -20.602208 14.534645 33.869469 -2.285180 4.468350 -17.988960 -35.819719 -9.261878 2.263715 -27.640084 -0.384285 -6.236024 -43.925064 -59.433915 20.301484 -3.460336 3.309576 0.970400 0.066150 -0.077970 0.364760 32.195932 15.315705 6.303162 27.324299 4.198741 -8.332998 124.091431 65.066324 87.780542 1.847438 -0.930425 -0.445870 0.513290 0.003490 -0.474300 
0.912020 15.484310 -2.579150 -2.814003 -20.993988 -5.121527 -15.191580 13.223211 1.648677 18.653503 0.630914 -6.975107 -3.456909 11.726444 35.721189 -0.343167 8.181077 1.823377 0.671380 0.059810 0.454720 18.455700 -8.291980 5.849800 -37.186557 5.129700 -35.164912 51.865638 -23.318173 27.888974 -1.758278 -9.681679 1.366921 0.214640 0.291510 0.161200 -3.799914 -3.569370 -8.676402 12.287909 -3.736855 27.279306 -5.964470 -1.464896 0.598150 1.678473 -8.909822 -8.049010 -19.539948 14.666756 35.032730 -2.674730 5.221990 -15.929670 -37.139020 -8.154267 1.983377 -28.614539 1.781099 -6.786333 -33.586248 -53.537886 12.607094 -3.465399 3.262094 0.933190 0.097550 -0.105150 0.353700 33.368771 14.344266 5.981444 29.971753 5.703691 -6.527213 121.482150 63.679893 82.964091 1.896914 -1.026919 -0.450830 0.498770 0.013040 -0.475380 
0.822170 15.538340 -2.554000 -3.288063 -20.019648 -4.428069 -15.159198 13.348342 1.569030 18.709121 1.059428 -6.806767 -2.049370 10.618967 33.521631 -0.483313 7.725784 1.996636 0.617300 -0.020050 0.437730 18.434429 -8.526956 5.726834 -37.076590 5.117582 -31.581318 50.389642 -18.987287 22.051660 -1.492726 -8.849805 1.592815 0.189040 0.337470 0.174280 -3.776639 -3.355671 -8.587775 11.846778 -2.632538 24.927041 -5.411946 -0.621230 1.111343 1.687530 -7.941733 -7.484040 -16.970819 14.114952 35.877968 -3.199770 6.042180 -14.613090 -37.943362 -7.340184 1.847087 -28.759428 3.610313 -6.807643 -28.745726 -48.991798 9.131115 -3.520687 3.204625 0.934040 0.147990 -0.141560 0.333880 34.061713 13.396271 5.551568 32.693162 7.201983 -5.090009 120.986100 62.861187 81.625249 1.874608 -1.053413 -0.491150 0.501870 0.053940 -0.498280 
0.712530 15.608380 -2.529160 -3.978632 -18.544382 -3.061597 -15.144069 13.452106 1.505659 18.809871 1.332190 -7.318241 -0.529056 9.381219 30.865919 -0.591184 7.135530 2.204688 0.605320 -0.050010 0.443790 18.389389 -8.805578 5.515159 -35.340544 5.230450 -28.230536 47.102104 -15.280330 17.240492 -1.244374 -8.065614 1.800985 0.173200 0.342760 0.205890 -3.702863 -3.091274 -8.449993 11.093097 -1.363974 21.598550 -4.052262 0.322412 2.189405 1.717640 -7.006456 -7.077197 -14.525160 12.783143 35.893066 -4.050980 6.371690 -12.789100 -37.274561 -6.280382 1.843801 -30.072940 4.913519 -6.603864 -26.689628 -45.955907 7.601528 -3.578528 3.209430 0.893000 0.184940 -0.167510 0.325680 33.410733 12.432341 5.051069 35.123324 8.794245 -3.349358 120.679904 62.098023 80.615654 1.869593 -1.148520 -0.476360 0.441760 0.052050 -0.504840 
0.587650 15.679610 -2.488190 -4.392196 -16.451969 -0.888668 -15.133160 13.436658 1.420100 18.354353 1.352904 -8.927385 1.143434 8.163016 28.688895 -0.715229 6.600058 2.432783 0.537080 -0.125910 0.360830 18.365927 -9.131263 5.247463 -32.997763 5.040427 -25.582103 43.186093 -12.609368 13.398886 -0.986949 -7.424320 2.024121 0.159690 0.459420 0.211470 -3.682900 -2.608070 -8.173590 9.856189 -0.113161 16.681359 -2.395422 0.961885 3.377621 1.485677 -6.180878 -6.647475 -12.172931 11.719488 34.264020 -3.937360 6.276570 -9.156620 -34.918015 -4.427953 1.908405 -32.482328 6.435400 -6.282738 -25.775817 -44.202056 6.942406 -3.717831 3.167137 0.813120 0.286350 -0.266790 0.349860 31.773311 10.628890 4.291914 38.041347 10.193189 -1.086513 121.553454 61.533177 81.507471 1.805643 -1.226074 -0.515270 0.444860 0.085080 -0.483780 
